<svg xmlns="http://www.w3.org/2000/svg" width="522" height="586" fill="none"><path fill="#FC8833" fill-opacity=".4" d="M141.083 106.68c-29.93 4.975-58.117-14.603-62.958-43.727-4.84-29.125 15.497-56.769 45.427-61.744 29.929-4.974 58.117 14.603 62.958 43.728 4.841 29.125-15.498 56.769-45.427 61.743ZM165.783 347.758s11.111 30.993 53.907 23.879l152.233-25.303 103.511 156.584s14.079 12.992 32.47 2.632c18.392-10.359 12.647-22.546 12.647-22.546l-108.51-168.876s-5.585-24.623-49.807-17.273c-44.222 7.351-130.624 20.978-130.624 20.978l-8.394-32.591 95.676-15.903s20.145-8.783 16.581-25.718c-3.564-16.936-23.587-20.903-23.587-20.903l-105.731 18.308-25.958-97.902s-18.4-21.037-41.624-17.177c-5.703.948-20.409 9.722-15.927 29.692l43.137 192.119Z"/><path fill="#FC8833" fill-opacity=".4" d="m87.617 207.459-30.213-79.801s-83.907 40.936-116.876 109.111c-87.78 181.517 22.953 349.782 210.008 349.224 135.525-.403 205.82-131.035 205.82-131.035l-79.07-38.694s-10.539 20.517-30.007 37.975c-19.468 17.458-52.737 32.327-85.724 37.81-32.986 5.483-80.846-5.394-117.531-37.013-41.854-36.073-55.23-99.204-48.403-130.97 6.826-31.765 21.65-59.117 40.021-79.694 18.372-20.577 51.975-36.913 51.975-36.913Z"/></svg>
