<svg width="463" height="479" viewBox="0 0 463 479" fill="none" xmlns="http://www.w3.org/2000/svg">
<path opacity="0.4" fill-rule="evenodd" clip-rule="evenodd" d="M353.864 10.8813C365.671 2.60191 381.519 -2.10496 398.491 0.922992C410.158 3.00491 419.431 8.04942 426.972 14.9814C438.225 25.3271 445.658 39.8756 446.054 57.4474C446.832 91.8861 419.665 119.237 382.638 116.899C364.983 115.785 352.237 108.086 342.119 96.106C335.314 88.0444 331.03 80.0606 328.907 67.1117C324.833 42.2392 338.972 21.3251 353.864 10.8813ZM56.739 281.199C79.5541 259.639 106.907 243.187 142.764 235.803C145.157 235.311 148.02 235.51 150.105 234.633C152.512 233.618 156.513 227.472 158.033 225.847C185.601 196.312 211.128 165.682 237.893 135.644C221.985 125.741 205.33 116.58 188.861 107.236C169.565 123.292 151.625 140.657 132.196 157.61C123.372 165.309 108.54 173.82 92.559 167.274C79.2109 161.808 69.0716 148.532 70.2462 130.666C71.2258 115.736 82.7285 107.732 92.2657 99.0359C111.799 81.2214 131.904 62.9494 152.16 45.4399C159.104 39.44 165.589 32.3695 176.237 29.9173C177.488 29.6294 179.481 30.0978 180.347 28.4531C180.796 29.8784 184.927 28.7736 187.981 29.0397C197 29.8239 204.728 35.3928 212.057 39.5831C248.427 60.3742 285.395 81.7162 322.157 102.549C329.292 106.593 336.622 110.91 343.885 115.436C351.178 119.986 359.452 123.163 365.905 128.029C378.844 137.786 384.753 159.57 377.355 176.353C372.789 186.714 363.598 194.707 356.215 203.297C339.22 223.073 320.836 243.508 303.367 263.627C340.062 262.153 381.482 259.412 416.992 256.599C422.289 257.361 428.402 256.233 434.902 257.476C452.306 260.811 464.773 275.648 462.793 297.306C458.012 349.614 454.145 405.462 449.874 460.727C448.704 475.897 448.015 486.882 440.186 495.872C432.018 505.247 415.787 512.039 400.843 505.829C388.475 500.687 377.974 489.406 378.234 472.733C378.361 464.728 379.749 455.901 380.29 447.254C382.674 409.155 386.973 366.45 389.392 329.521C375.55 329.543 357.65 331.451 342.708 331.865C356.57 360.288 365.234 402.454 357.681 444.033C351.009 480.767 333.51 511.703 311.588 533.356C296.101 518.64 281.188 503.347 265.784 488.547C277.594 475.671 288.114 458.303 292.795 438.76C297.573 418.821 297.154 398.214 291.329 378.429C275.02 330.486 237.653 296.961 176.823 295.842C162.11 295.571 146.357 300.191 134.544 305.505C121.996 311.153 111.794 317.811 101.954 326.006C86.6298 311.321 72.1664 295.778 56.739 281.199ZM244.936 506.707C257.177 517.336 268.55 529.381 280.17 540.971C283.99 544.783 288.521 547.939 291.328 552.394C260.278 576.323 217.463 592.857 165.37 589.588C146.33 588.393 129.365 583.224 113.99 577.873C109.28 576.233 104.746 573.771 100.485 571.725C91.0287 567.177 81.6896 562.276 73.7669 556.495C65.6413 550.564 58.5875 543.663 51.4525 536.873C24.9638 511.656 3.43567 470.493 0.365788 423.825C-1.12392 401.175 1.98028 375.254 8.87972 355.004C15.9164 334.353 25.9669 317.512 37.6536 301.408C49.4434 311.713 60.3049 323.366 71.7125 334.504C75.6122 338.311 79.7912 342.046 83.1621 346.219C84.7018 347.723 81.8347 350.418 80.8145 352.077C72.196 366.044 65.8192 383.866 64.3731 404.794C62.6838 429.231 69.5614 451.883 79.6399 468.635C89.1428 484.436 102.335 498.696 118.982 509.053C135.498 519.327 156.69 526.653 179.759 526.625C206.698 526.591 227.567 517.826 244.936 506.707Z" fill="#FFE279"/>
</svg>
