<svg width="744" height="589" viewBox="0 0 744 589" fill="none" xmlns="http://www.w3.org/2000/svg">
<g opacity="0.4">
<rect width="146.192" height="42.3664" transform="matrix(0.754209 -0.656635 0.65043 0.759566 198.483 476.775)" fill="#70E3F3"/>
<rect width="243.654" height="70.6107" transform="matrix(0.754209 -0.656635 0.65043 0.759566 44.9106 591.756)" fill="#70E3F3"/>
<circle cx="465.076" cy="278.626" r="208.613" transform="rotate(-25.8072 465.076 278.626)" fill="#70E3F3"/>
<ellipse cx="468.384" cy="281.989" rx="165.152" ry="167.882" transform="rotate(-25.8072 468.384 281.989)" fill="white"/>
<path d="M373.568 187.687C353.393 207.365 340.458 233.422 336.849 261.653C333.24 289.884 339.169 318.643 353.678 343.288L365.917 336.038C353.056 314.193 347.801 288.703 351 263.68C354.199 238.657 365.664 215.561 383.547 198.119L373.568 187.687Z" fill="#70E3F3"/>
</g>
</svg>
