<svg width="680" height="405" viewBox="0 0 680 405" fill="none" xmlns="http://www.w3.org/2000/svg">
<g opacity="0.4">
<path d="M567.509 99.8327C595.026 99.8327 617.333 77.4844 617.333 49.9164C617.333 22.3483 595.026 0 567.509 0C539.993 0 517.686 22.3483 517.686 49.9164C517.686 77.4844 539.993 99.8327 567.509 99.8327Z" fill="#F370E6"/>
<path d="M456 327.523V136.591C460.33 108.737 480.484 99.8965 505.467 96.8328L627.767 95.0788C627.767 95.0788 670.025 97.7215 674.522 128.663C679.019 159.604 679.019 327.453 679.019 327.453C677.794 332.119 674.99 336.236 671.067 339.127C667.145 342.017 662.338 343.509 657.438 343.356C639.45 343.356 634.953 336.34 634.953 326.564C634.953 316.788 634.049 146.32 634.049 146.32L627.767 147.209L626.863 571.497C626.863 571.497 616.084 584.734 603.474 584.734C590.863 584.734 573.779 571.497 573.779 571.497V344.315L567.498 345.204V571.497C567.498 571.497 561.192 584.734 540.515 584.734C519.839 584.734 510.845 572.363 510.845 572.363V147.209L503.706 146.32V326.634C503.706 326.634 500.114 344.315 483.03 344.315C465.946 344.315 456 327.523 456 327.523Z" fill="#F370E6"/>
</g>
<g opacity="0.4">
<path d="M308.509 99.8327C336.026 99.8327 358.333 77.4844 358.333 49.9164C358.333 22.3483 336.026 0 308.509 0C280.993 0 258.686 22.3483 258.686 49.9164C258.686 77.4844 280.993 99.8327 308.509 99.8327Z" fill="#F370E6"/>
<path d="M197 327.523V136.591C201.33 108.737 221.484 99.8965 246.467 96.8328L368.767 95.0788C368.767 95.0788 411.025 97.7215 415.522 128.663C420.019 159.604 420.019 327.453 420.019 327.453C418.794 332.119 415.99 336.236 412.067 339.127C408.145 342.017 403.338 343.509 398.438 343.356C380.45 343.356 375.953 336.34 375.953 326.564C375.953 316.788 375.049 146.32 375.049 146.32L368.767 147.209L367.863 571.497C367.863 571.497 357.084 584.734 344.474 584.734C331.863 584.734 314.779 571.497 314.779 571.497V344.315L308.498 345.204V571.497C308.498 571.497 302.192 584.734 281.515 584.734C260.839 584.734 251.845 572.363 251.845 572.363V147.209L244.706 146.32V326.634C244.706 326.634 241.114 344.315 224.03 344.315C206.946 344.315 197 327.523 197 327.523Z" fill="#F370E6"/>
</g>
<g opacity="0.4">
<path d="M49.5094 99.8327C77.0261 99.8327 99.3328 77.4844 99.3328 49.9164C99.3328 22.3483 77.0261 0 49.5094 0C21.9927 0 -0.313965 22.3483 -0.313965 49.9164C-0.313965 77.4844 21.9927 99.8327 49.5094 99.8327Z" fill="#F370E6"/>
<path d="M-62 327.523V136.591C-57.6695 108.737 -37.5162 99.8965 -12.5328 96.8328L109.767 95.0788C109.767 95.0788 152.025 97.7215 156.522 128.663C161.019 159.604 161.019 327.453 161.019 327.453C159.794 332.119 156.99 336.236 153.067 339.127C149.145 342.017 144.338 343.509 139.438 343.356C121.45 343.356 116.953 336.34 116.953 326.564C116.953 316.788 116.049 146.32 116.049 146.32L109.767 147.209L108.863 571.497C108.863 571.497 98.0844 584.734 85.4737 584.734C72.863 584.734 55.7791 571.497 55.7791 571.497V344.315L49.4975 345.204V571.497C49.4975 571.497 43.1922 584.734 22.5154 584.734C1.83865 584.734 -7.15539 572.363 -7.15539 572.363V147.209L-14.2935 146.32V326.634C-14.2935 326.634 -17.8864 344.315 -34.9703 344.315C-52.0542 344.315 -62 327.523 -62 327.523Z" fill="#F370E6"/>
</g>
</svg>
